<svg xmlns="http://www.w3.org/2000/svg" width="120" height="120" viewBox="0 0 120 120">
  <defs>
    <radialGradient id="pulse" cx="50%" cy="50%" r="70%">
      <stop offset="0%" stop-color="#0ea5e9" />
      <stop offset="70%" stop-color="#020617" />
      <stop offset="100%" stop-color="#000814" />
    </radialGradient>
    <linearGradient id="neon" x1="0%" y1="0%" x2="100%" y2="0%">
      <stop offset="0%" stop-color="#67e8f9" />
      <stop offset="100%" stop-color="#38bdf8" />
    </linearGradient>
  </defs>
  <rect width="120" height="120" rx="30" fill="#000814" />
  <circle cx="60" cy="60" r="52" fill="url(#pulse)" opacity="0.9" />
  <path
    d="M40 60c0-14 11-26 25-26 7 0 12 2 16 5l-7 9c-3-3-6-4-9-4-8 0-13 7-13 16s5 16 13 16c3 0 6-1 9-4l7 9c-4 4-9 6-16 6-14 0-25-12-25-27z"
    fill="url(#neon)"
  />
  <path
    d="M68 32h24v10L79 88H66l12-42H68V32z"
    fill="url(#neon)"
  />
  <path
    d="M20 60h80"
    stroke="rgba(103,232,249,0.35)"
    stroke-width="2"
    stroke-linecap="round"
    stroke-dasharray="6 6"
  />
</svg>
